<?xml version="1.0" encoding="UTF-8"?><svg id="Layer_1" xmlns="http://www.w3.org/2000/svg" viewBox="0 0 281 281"><defs><style>.cls-1{fill:#fff;}.cls-2{fill:#f20132;}</style></defs><g><circle class="cls-2" cx="140.5" cy="140.5" r="134"/><path class="cls-1" d="m140.5,281C63.03,281,0,217.97,0,140.5S63.03,0,140.5,0s140.5,63.03,140.5,140.5-63.03,140.5-140.5,140.5Zm0-268c-70.3,0-127.5,57.2-127.5,127.5s57.2,127.5,127.5,127.5,127.5-57.2,127.5-127.5S210.8,13,140.5,13Z"/></g><g><path class="cls-1" d="m55.95,173.67c-5.39-1.28-10.25-3.17-14.57-5.67l7.04-12.43.44-.99.77.44c.15.51.42.95.82,1.32.4.37,1.12.84,2.15,1.43,3.23,1.61,6.6,2.79,10.12,3.52,3.52.73,7.19,1.1,11,1.1,4.91,0,8.95-.4,12.1-1.21,3.15-.81,5.5-2.02,7.04-3.63,1.54-1.61,2.31-3.63,2.31-6.05v-32.45h-26.73v-13.2h64.9v13.2h-21.45v32.34c.15,4.4-.86,8.14-3.02,11.22-2.16,3.08-5.08,5.57-8.75,7.48-3.67,1.91-7.79,3.3-12.38,4.18-4.58.88-9.26,1.32-14.02,1.32-6.45,0-12.38-.64-17.77-1.92Z"/><path class="cls-1" d="m165.72,171.31c-8.1-2.85-14.39-6.87-18.87-12.06-4.47-5.19-6.71-11.22-6.71-18.09-.15-5.92.95-10.95,3.3-15.08,2.35-4.13,5.5-7.55,9.46-10.25,3.96-2.71,8.32-4.82,13.09-6.36,4.77-1.53,9.55-2.6,14.35-3.18s9.22-.88,13.26-.88c5.43,0,10.83.5,16.22,1.49,5.39.99,10.32,2.33,14.79,4.01,4.47,1.69,7.99,3.7,10.56,6.05l-8.58,11.22-.66.88-.66-.44c-.07-.59-.29-1.08-.66-1.49-.37-.4-1.06-.97-2.09-1.71-2.35-1.47-5.1-2.66-8.25-3.57-3.15-.92-6.51-1.6-10.06-2.04-3.56-.44-7.17-.66-10.84-.66-3.96,0-7.75.22-11.38.66-3.63.44-6.97,1.15-10.01,2.13s-5.7,2.28-7.97,3.88c-2.27,1.61-4.04,3.54-5.28,5.8s-1.87,4.89-1.87,7.88c0,3.5.84,6.62,2.53,9.36s4.16,5.09,7.43,7.06c3.26,1.97,7.21,3.47,11.82,4.49,4.62,1.02,9.83,1.53,15.62,1.53,1.98,0,4.05-.07,6.21-.22,2.16-.14,4.31-.38,6.44-.71,2.12-.33,4.21-.76,6.27-1.31,2.05-.54,3.96-1.18,5.72-1.91v-7.08h-23.54v-13.53h40.26v31.26c-6.45,2.34-13.22,4.11-20.29,5.32-7.08,1.21-14.1,1.81-21.06,1.81-10.93,0-20.44-1.42-28.54-4.28Z"/></g></svg>